<svg width="11" height="11" viewBox="0 0 11 11" fill="none" xmlns="http://www.w3.org/2000/svg">
<path d="M0.21967 9.21967C-0.0732233 9.51256 -0.0732233 9.98744 0.21967 10.2803C0.512563 10.5732 0.987437 10.5732 1.28033 10.2803L0.75 9.75L0.21967 9.21967ZM10.5 0.75C10.5 0.335786 10.1642 3.87003e-08 9.75 1.86214e-07L3 -2.35254e-07C2.58579 -2.35254e-07 2.25 0.335786 2.25 0.75C2.25 1.16421 2.58579 1.5 3 1.5H9V7.5C9 7.91421 9.33579 8.25 9.75 8.25C10.1642 8.25 10.5 7.91421 10.5 7.5L10.5 0.75ZM0.75 9.75L1.28033 10.2803L10.2803 1.28033L9.75 0.75L9.21967 0.21967L0.21967 9.21967L0.75 9.75Z" fill="black"/>
</svg>
