<svg width="11" height="11" viewBox="0 0 11 11" fill="none" xmlns="http://www.w3.org/2000/svg">
<path d="M10.2803 1.28033C10.5732 0.987437 10.5732 0.512563 10.2803 0.21967C9.98744 -0.0732233 9.51256 -0.0732233 9.21967 0.21967L9.75 0.75L10.2803 1.28033ZM-1.00576e-07 9.75C-1.00576e-07 10.1642 0.335786 10.5 0.75 10.5H7.5C7.91421 10.5 8.25 10.1642 8.25 9.75C8.25 9.33579 7.91421 9 7.5 9L1.5 9L1.5 3C1.5 2.58579 1.16421 2.25 0.75 2.25C0.335786 2.25 -1.00576e-07 2.58579 -1.00576e-07 3V9.75ZM9.75 0.75L9.21967 0.21967L0.21967 9.21967L0.75 9.75L1.28033 10.2803L10.2803 1.28033L9.75 0.75Z" fill="black"/>
</svg>
