<svg width="11" height="11" viewBox="0 0 11 11" fill="none" xmlns="http://www.w3.org/2000/svg">
<path d="M10.7071 1.70711C11.0976 1.31658 11.0976 0.683418 10.7071 0.292893C10.3166 -0.0976311 9.68342 -0.0976311 9.29289 0.292893L10 1L10.7071 1.70711ZM-9.62973e-08 10C-9.62973e-08 10.5523 0.447715 11 1 11H10C10.5523 11 11 10.5523 11 10C11 9.44772 10.5523 9 10 9H2V1C2 0.447716 1.55228 2.84554e-07 1 2.84554e-07C0.447715 2.84554e-07 -9.62973e-08 0.447716 -9.62973e-08 1V10ZM10 1L9.29289 0.292893L0.292893 9.29289L1 10L1.70711 10.7071L10.7071 1.70711L10 1Z" fill="white"/>
</svg>
