<svg width="25" height="32" viewBox="0 0 25 32" fill="none" xmlns="http://www.w3.org/2000/svg">
<path d="M22.5902 5.80123C20.3562 2.16868 16.4721 0 12.2005 0C7.92876 0 4.04478 2.16868 1.81075 5.80117C-0.415009 9.42028 -0.599733 13.8444 1.31683 17.6358C1.33268 17.6672 1.35034 17.6978 1.36968 17.7272L9.77805 30.5268C10.3157 31.3453 11.2212 31.8339 12.2005 31.8339C13.1797 31.8339 14.0853 31.3453 14.623 30.5269L23.0313 17.7272C23.0506 17.6978 23.0683 17.6673 23.0841 17.6359C25.0007 13.8444 24.816 9.42028 22.5902 5.80123ZM21.4427 16.7482L13.064 29.5027C12.8695 29.7988 12.5548 29.9686 12.2005 29.9686C11.8462 29.9686 11.5315 29.7988 11.337 29.5027L2.95826 16.7482C1.36116 13.5498 1.52487 9.82654 3.39959 6.77832C5.29159 3.70193 8.58167 1.86527 12.2005 1.86527C15.8193 1.86527 19.1093 3.70193 21.0014 6.77832C22.876 9.82654 23.0398 13.5498 21.4427 16.7482Z" fill="white"/>
<path d="M12.201 3.93311C7.71555 3.93311 4.06641 7.57398 4.06641 12.0492C4.06641 16.5244 7.71555 20.1653 12.201 20.1653C16.6864 20.1653 20.3355 16.5244 20.3355 12.0492C20.3355 7.57398 16.6864 3.93311 12.201 3.93311ZM12.201 18.3C8.74406 18.3 5.93167 15.496 5.93167 12.0493C5.93167 8.60255 8.74406 5.79843 12.201 5.79843C15.6579 5.79843 18.4702 8.60255 18.4702 12.0493C18.4702 15.496 15.6579 18.3 12.201 18.3Z" fill="white"/>
<path d="M14.8646 10.0647C14.5005 9.70044 13.9099 9.70044 13.5457 10.0647L11.7043 11.906C11.6816 11.9287 11.6544 11.9401 11.6216 11.938C11.5894 11.9365 11.5627 11.9232 11.5422 11.8984L10.9146 11.1409C10.5859 10.7442 9.99803 10.689 9.60135 11.0176C9.20473 11.3462 9.14952 11.9342 9.47812 12.3308L10.1057 13.0884C10.4596 13.5156 10.9803 13.7754 11.5344 13.8013C11.565 13.8027 11.5956 13.8035 11.6262 13.8035C12.148 13.8035 12.6528 13.5955 13.0233 13.225L14.8646 11.3837C15.2289 11.0194 15.2289 10.429 14.8646 10.0647Z" fill="white"/>
</svg>
