<svg width="24" height="23" viewBox="0 0 24 23" fill="none" xmlns="http://www.w3.org/2000/svg">
<path d="M0.742039 6.2865C0.315549 9.82087 3.25048 13.7635 6.80101 16.9532C10.3516 20.1431 14.5176 22.58 17.7846 21.5974C20.4713 20.7893 21.7491 19.157 22.4344 17.7973C22.6708 17.3281 22.4894 16.7566 22.0589 16.4705L17.9829 13.7614C17.5434 13.4693 16.9679 13.5577 16.6317 13.969L14.7551 16.264C14.7551 16.264 12.7193 15.7409 9.87882 13.1891C7.03845 10.6373 6.23382 8.60856 6.23382 8.60856L8.11039 6.31355C8.44669 5.90226 8.44197 5.29272 8.0993 4.88213L4.92151 1.07439C4.58595 0.67232 4.0194 0.57177 3.61322 0.888481C2.43607 1.80636 1.09278 3.37978 0.742039 6.2865Z" stroke="white" stroke-width="1.4" stroke-linecap="round" stroke-linejoin="round"/>
</svg>
