<svg width="37" height="37" viewBox="0 0 37 37" fill="none" xmlns="http://www.w3.org/2000/svg">
<path d="M0.00742475 37L2.50862 27.8092C0.860529 24.984 -0.00534767 21.7708 2.48496e-05 18.5C2.48496e-05 8.28244 8.28247 0 18.5 0C28.7176 0 37 8.28244 37 18.5C37 28.7175 28.7176 37 18.5 37C15.2307 37.0053 12.0188 36.14 9.19452 34.4932L0.00742475 37ZM11.8234 9.81979C11.5845 9.83463 11.351 9.89755 11.137 10.0048C10.9363 10.1184 10.7531 10.2605 10.5931 10.4266C10.3711 10.6356 10.2453 10.8169 10.1103 10.9927C9.42653 11.8825 9.05875 12.9748 9.06502 14.097C9.06872 15.0035 9.30552 15.8859 9.67552 16.711C10.4322 18.3797 11.6772 20.1465 13.3219 21.7837C13.7178 22.1778 14.1044 22.5737 14.5207 22.9418C16.5619 24.739 18.9944 26.0351 21.6247 26.7269L22.6773 26.8879C23.0196 26.9064 23.3618 26.8805 23.7059 26.8638C24.2447 26.836 24.7708 26.6901 25.247 26.4365C25.5541 26.2737 25.6984 26.1923 25.9555 26.0295C25.9555 26.0295 26.0351 25.9777 26.1868 25.863C26.4365 25.678 26.5901 25.5466 26.7973 25.3302C26.9508 25.1711 27.084 24.9842 27.1858 24.7715C27.3301 24.4699 27.4744 23.8946 27.5336 23.4154C27.578 23.0491 27.565 22.8493 27.5595 22.7254C27.5521 22.5274 27.3874 22.3221 27.208 22.2351L26.1313 21.7523C26.1313 21.7523 24.5218 21.0511 23.5394 20.6034C23.4358 20.5583 23.3248 20.5326 23.212 20.5276C23.0854 20.5146 22.9575 20.5288 22.8369 20.5694C22.7163 20.6099 22.6057 20.6757 22.5127 20.7625V20.7588C22.5034 20.7588 22.3795 20.8643 21.0419 22.4849C20.9651 22.588 20.8594 22.666 20.7381 22.7088C20.6169 22.7517 20.4856 22.7574 20.3611 22.7254C20.2406 22.6932 20.1225 22.6523 20.0078 22.6033C19.7784 22.5071 19.6988 22.4701 19.5416 22.4016L19.5323 22.3979C18.4739 21.9359 17.494 21.3117 16.6278 20.5479C16.3947 20.3444 16.1783 20.1224 15.9563 19.9078C15.2284 19.2108 14.5941 18.4223 14.0693 17.562L13.9601 17.3863C13.8817 17.2682 13.8183 17.1408 13.7714 17.007C13.7011 16.7351 13.8843 16.5168 13.8843 16.5168C13.8843 16.5168 14.3338 16.0247 14.5429 15.7583C14.7169 15.5369 14.8793 15.3066 15.0294 15.0682C15.2477 14.7167 15.3162 14.356 15.2015 14.0766C14.6835 12.8112 14.147 11.5514 13.5957 10.3008C13.4865 10.0529 13.1628 9.87529 12.8686 9.84014C12.7687 9.82904 12.6688 9.81794 12.5689 9.81054C12.3205 9.7982 12.0715 9.80252 11.8234 9.81979Z" fill="white"/>
</svg>
